STARTFONT 2.1
COMMENT Copyright (C) 1990-1991 EWT Consulting
COMMENT Portions Copyright (C) 1994-1995 Cronyx Ltd.
COMMENT Modified by Serge Vakulenko, <vak@cronyx.ru>
COMMENT Encoding changed to CP1251 by Rabinovich Moisei, <moisei@cs.bgu.ac.il>,$
COMMENT This software may be used, modified, copied, distributed, and sold,
COMMENT in both source and binary form provided that the copyright
COMMENT and these terms are retained. Under no circumstances is the author
COMMENT responsible for the proper functioning of this software, nor does
COMMENT the author assume any responsibility for damages incurred with its use.
FONT -Cronyx-Times-Bold-R-Normal--12-120-75-75-P-64-RAWIN-R
SIZE 12 96 96
FONTBOUNDINGBOX 19 19 0 -4
STARTPROPERTIES 19
DEFAULT_CHAR 32
FONT_ASCENT 15
FONT_DESCENT 4
SPACING "P"
FONTNAME_REGISTRY ""
FOUNDRY "Cronyx"
FAMILY_NAME "Times"
WEIGHT_NAME "Bold"
SLANT "R"
SETWIDTH_NAME "Normal"
ADD_STYLE_NAME ""
AVERAGE_WIDTH 64
CHARSET_REGISTRY "RAWIN"
CHARSET_ENCODING "R"
PIXEL_SIZE 12
POINT_SIZE 120
RESOLUTION_X 75
RESOLUTION_Y 75
COPYRIGHT "Copyright (C) 1990, 1991 EWT Consulting, Portions Copyright (C) 1994 Cronyx Ltd."
ENDPROPERTIES
CHARS 224
STARTCHAR space
ENCODING 32
SWIDTH 263 0
DWIDTH 5 0
BBX 5 19 0 -4
BITMAP
00
00
00
00
00
00
00
00
00
00
00
00
00
00
00
00
00
00
00
ENDCHAR
STARTCHAR exclam
ENCODING 33
SWIDTH 263 0
DWIDTH 5 0
BBX 5 19 0 -4
BITMAP
00
00
00
00
60
60
60
60
60
60
60
60
00
60
60
00
00
00
00
ENDCHAR
STARTCHAR quotedbl
ENCODING 34
SWIDTH 368 0
DWIDTH 7 0
BBX 7 19 0 -4
BITMAP
00
00
00
00
6C
6C
6C
6C
00
00
00
00
00
00
00
00
00
00
00
ENDCHAR
STARTCHAR numbersign
ENCODING 35
SWIDTH 473 0
DWIDTH 9 0
BBX 9 19 0 -4
BITMAP
0000
0000
0000
0000
1B00
1B00
1B00
7F80
3600
3600
3600
FF00
6C00
6C00
6C00
0000
0000
0000
0000
ENDCHAR
STARTCHAR dollar
ENCODING 36
SWIDTH 473 0
DWIDTH 9 0
BBX 9 19 0 -4
BITMAP
0000
0000
0C00
0C00
3F00
6F00
6F00
6C00
3C00
1C00
0E00
0F00
6F00
7F00
7E00
0C00
0C00
0000
0000
ENDCHAR
STARTCHAR percent
ENCODING 37
SWIDTH 736 0
DWIDTH 14 0
BBX 14 19 0 -4
BITMAP
0000
0000
0000
0000
3818
6FF0
6C60
6CC0
3980
0300
0670
0CD8
18D8
30D8
6070
0000
0000
0000
0000
ENDCHAR
STARTCHAR ampersand
ENCODING 38
SWIDTH 684 0
DWIDTH 13 0
BBX 13 19 0 -4
BITMAP
0000
0000
0000
0000
1C00
3600
3600
3600
1C00
1CF0
3660
63C0
6180
63C0
3E60
0000
0000
0000
0000
ENDCHAR
STARTCHAR quoteright
ENCODING 39
SWIDTH 263 0
DWIDTH 5 0
BBX 5 19 0 -4
BITMAP
00
00
00
00
60
60
60
60
00
00
00
00
00
00
00
00
00
00
00
ENDCHAR
STARTCHAR parenleft
ENCODING 40
SWIDTH 315 0
DWIDTH 6 0
BBX 6 19 0 -4
BITMAP
00
00
00
18
18
30
30
60
60
60
60
60
60
60
30
30
18
18
00
ENDCHAR
STARTCHAR parenright
ENCODING 41
SWIDTH 315 0
DWIDTH 6 0
BBX 6 19 0 -4
BITMAP
00
00
00
60
60
30
30
18
18
18
18
18
18
18
30
30
60
60
00
ENDCHAR
STARTCHAR asterisk
ENCODING 42
SWIDTH 421 0
DWIDTH 8 0
BBX 8 19 0 -4
BITMAP
00
00
00
00
18
7E
3C
3C
7E
18
00
00
00
00
00
00
00
00
00
ENDCHAR
STARTCHAR plus
ENCODING 43
SWIDTH 526 0
DWIDTH 10 0
BBX 10 19 0 -4
BITMAP
0000
0000
0000
0000
0000
0000
0C00
0C00
0C00
7F80
0C00
0C00
0C00
0000
0000
0000
0000
0000
0000
ENDCHAR
STARTCHAR comma
ENCODING 44
SWIDTH 263 0
DWIDTH 5 0
BBX 5 19 0 -4
BITMAP
00
00
00
00
00
00
00
00
00
00
00
00
00
60
60
80
00
00
00
ENDCHAR
STARTCHAR minus
ENCODING 45
SWIDTH 315 0
DWIDTH 6 0
BBX 6 19 0 -4
BITMAP
00
00
00
00
00
00
00
00
00
F8
00
00
00
00
00
00
00
00
00
ENDCHAR
STARTCHAR period
ENCODING 46
SWIDTH 263 0
DWIDTH 5 0
BBX 5 19 0 -4
BITMAP
00
00
00
00
00
00
00
00
00
00
00
00
00
60
60
00
00
00
00
ENDCHAR
STARTCHAR slash
ENCODING 47
SWIDTH 315 0
DWIDTH 6 0
BBX 6 19 0 -4
BITMAP
00
00
00
00
0C
0C
18
18
18
30
30
60
60
60
80
80
00
00
00
ENDCHAR
STARTCHAR zero
ENCODING 48
SWIDTH 473 0
DWIDTH 9 0
BBX 9 19 0 -4
BITMAP
0000
0000
0000
0000
1C00
3600
6300
6300
6300
6300
6300
6300
6300
3600
1C00
0000
0000
0000
0000
ENDCHAR
STARTCHAR one
ENCODING 49
SWIDTH 473 0
DWIDTH 9 0
BBX 9 19 0 -4
BITMAP
0000
0000
0000
0000
0C00
1C00
3C00
0C00
0C00
0C00
0C00
0C00
0C00
0C00
3F00
0000
0000
0000
0000
ENDCHAR
STARTCHAR two
ENCODING 50
SWIDTH 473 0
DWIDTH 9 0
BBX 9 19 0 -4
BITMAP
0000
0000
0000
0000
3C00
6600
0300
0300
0300
0600
0C00
1800
3000
6300
7F00
0000
0000
0000
0000
ENDCHAR
STARTCHAR three
ENCODING 51
SWIDTH 473 0
DWIDTH 9 0
BBX 9 19 0 -4
BITMAP
0000
0000
0000
0000
3C00
6600
0300
0300
0600
1C00
0600
0300
0300
6600
3C00
0000
0000
0000
0000
ENDCHAR
STARTCHAR four
ENCODING 52
SWIDTH 473 0
DWIDTH 9 0
BBX 9 19 0 -4
BITMAP
0000
0000
0000
0000
0300
0700
0F00
0F00
1B00
3300
3300
6300
7F00
0300
0300
0000
0000
0000
0000
ENDCHAR
STARTCHAR five
ENCODING 53
SWIDTH 473 0
DWIDTH 9 0
BBX 9 19 0 -4
BITMAP
0000
0000
0000
0000
3F00
3000
6000
6000
7C00
0600
0300
0300
0300
6600
3C00
0000
0000
0000
0000
ENDCHAR
STARTCHAR six
ENCODING 54
SWIDTH 473 0
DWIDTH 9 0
BBX 9 19 0 -4
BITMAP
0000
0000
0000
0000
0700
1C00
3000
3000
7E00
7300
6300
6300
6300
6300
3E00
0000
0000
0000
0000
ENDCHAR
STARTCHAR seven
ENCODING 55
SWIDTH 473 0
DWIDTH 9 0
BBX 9 19 0 -4
BITMAP
0000
0000
0000
0000
7F00
6300
0300
0600
0600
0600
0C00
0C00
0C00
1800
1800
0000
0000
0000
0000
ENDCHAR
STARTCHAR eight
ENCODING 56
SWIDTH 473 0
DWIDTH 9 0
BBX 9 19 0 -4
BITMAP
0000
0000
0000
0000
3E00
6300
6300
6300
6300
3E00
6300
6300
6300
6300
3E00
0000
0000
0000
0000
ENDCHAR
STARTCHAR nine
ENCODING 57
SWIDTH 473 0
DWIDTH 9 0
BBX 9 19 0 -4
BITMAP
0000
0000
0000
0000
3E00
6300
6300
6300
6300
6700
3F00
0600
0600
1C00
7000
0000
0000
0000
0000
ENDCHAR
STARTCHAR colon
ENCODING 58
SWIDTH 263 0
DWIDTH 5 0
BBX 5 19 0 -4
BITMAP
00
00
00
00
00
00
00
00
60
60
00
00
00
60
60
00
00
00
00
ENDCHAR
STARTCHAR semicolon
ENCODING 59
SWIDTH 263 0
DWIDTH 5 0
BBX 5 19 0 -4
BITMAP
00
00
00
00
00
00
00
00
60
60
00
00
00
60
60
80
00
00
00
ENDCHAR
STARTCHAR less
ENCODING 60
SWIDTH 526 0
DWIDTH 10 0
BBX 10 19 0 -4
BITMAP
0000
0000
0000
0000
0000
0000
0000
0180
0700
1C00
7000
1C00
0700
0180
0000
0000
0000
0000
0000
ENDCHAR
STARTCHAR equal
ENCODING 61
SWIDTH 526 0
DWIDTH 10 0
BBX 10 19 0 -4
BITMAP
0000
0000
0000
0000
0000
0000
0000
0000
0000
7F80
0000
7F80
0000
0000
0000
0000
0000
0000
0000
ENDCHAR
STARTCHAR greater
ENCODING 62
SWIDTH 526 0
DWIDTH 10 0
BBX 10 19 0 -4
BITMAP
0000
0000
0000
0000
0000
0000
0000
6000
3800
0E00
0380
0E00
3800
6000
0000
0000
0000
0000
0000
ENDCHAR
STARTCHAR question
ENCODING 63
SWIDTH 421 0
DWIDTH 8 0
BBX 8 19 0 -4
BITMAP
00
00
00
00
3C
66
06
06
0C
18
18
18
00
18
18
00
00
00
00
ENDCHAR
STARTCHAR at
ENCODING 64
SWIDTH 842 0
DWIDTH 16 0
BBX 16 19 0 -4
BITMAP
0000
0000
0000
0000
07E0
1C38
300C
300C
63F6
6666
6666
6CC6
6CC6
6CCC
67F8
3000
3838
0FE0
0000
ENDCHAR
STARTCHAR A
ENCODING 65
SWIDTH 631 0
DWIDTH 12 0
BBX 12 19 0 -4
BITMAP
0000
0000
0000
0000
0600
0600
0F00
0F00
1980
1980
30C0
3FC0
6060
6060
F0F0
0000
0000
0000
0000
ENDCHAR
STARTCHAR B
ENCODING 66
SWIDTH 631 0
DWIDTH 12 0
BBX 12 19 0 -4
BITMAP
0000
0000
0000
0000
7F00
3180
30C0
30C0
3180
3F80
30C0
3060
3060
30C0
7F80
0000
0000
0000
0000
ENDCHAR
STARTCHAR C
ENCODING 67
SWIDTH 631 0
DWIDTH 12 0
BBX 12 19 0 -4
BITMAP
0000
0000
0000
0000
0FE0
38E0
3060
6000
6000
6000
6000
6000
3060
38C0
0F80
0000
0000
0000
0000
ENDCHAR
STARTCHAR D
ENCODING 68
SWIDTH 684 0
DWIDTH 13 0
BBX 13 19 0 -4
BITMAP
0000
0000
0000
0000
7F80
30E0
3060
3030
3030
3030
3030
3030
3060
30E0
7F80
0000
0000
0000
0000
ENDCHAR
STARTCHAR E
ENCODING 69
SWIDTH 578 0
DWIDTH 11 0
BBX 11 19 0 -4
BITMAP
0000
0000
0000
0000
7FC0
30C0
3000
3000
3300
3F00
3300
3000
3000
30C0
7FC0
0000
0000
0000
0000
ENDCHAR
STARTCHAR F
ENCODING 70
SWIDTH 578 0
DWIDTH 11 0
BBX 11 19 0 -4
BITMAP
0000
0000
0000
0000
7FC0
30C0
3000
3000
3300
3F00
3300
3000
3000
3000
7800
0000
0000
0000
0000
ENDCHAR
STARTCHAR G
ENCODING 71
SWIDTH 684 0
DWIDTH 13 0
BBX 13 19 0 -4
BITMAP
0000
0000
0000
0000
0FE0
38E0
3060
6000
6000
60F8
6030
6030
3060
38E0
0F80
0000
0000
0000
0000
ENDCHAR
STARTCHAR H
ENCODING 72
SWIDTH 684 0
DWIDTH 13 0
BBX 13 19 0 -4
BITMAP
0000
0000
0000
0000
78F0
3060
3060
3060
3060
3FE0
3060
3060
3060
3060
78F0
0000
0000
0000
0000
ENDCHAR
STARTCHAR I
ENCODING 73
SWIDTH 315 0
DWIDTH 6 0
BBX 6 19 0 -4
BITMAP
00
00
00
00
78
30
30
30
30
30
30
30
30
30
78
00
00
00
00
ENDCHAR
STARTCHAR J
ENCODING 74
SWIDTH 421 0
DWIDTH 8 0
BBX 8 19 0 -4
BITMAP
00
00
00
00
1E
0C
0C
0C
0C
0C
0C
0C
0C
6C
38
00
00
00
00
ENDCHAR
STARTCHAR K
ENCODING 75
SWIDTH 631 0
DWIDTH 12 0
BBX 12 19 0 -4
BITMAP
0000
0000
0000
0000
79E0
30C0
3180
3300
3600
3E00
3B00
3180
30C0
3060
78F0
0000
0000
0000
0000
ENDCHAR
STARTCHAR L
ENCODING 76
SWIDTH 578 0
DWIDTH 11 0
BBX 11 19 0 -4
BITMAP
0000
0000
0000
0000
7800
3000
3000
3000
3000
3000
3000
3000
3000
30C0
7FC0
0000
0000
0000
0000
ENDCHAR
STARTCHAR M
ENCODING 77
SWIDTH 842 0
DWIDTH 16 0
BBX 16 19 0 -4
BITMAP
0000
0000
0000
0000
700E
381C
381C
3C3C
3C3C
366C
366C
33CC
33CC
318C
799E
0000
0000
0000
0000
ENDCHAR
STARTCHAR N
ENCODING 78
SWIDTH 684 0
DWIDTH 13 0
BBX 13 19 0 -4
BITMAP
0000
0000
0000
0000
70F0
3860
3860
3C60
3660
3660
3360
31E0
31E0
30E0
7860
0000
0000
0000
0000
ENDCHAR
STARTCHAR O
ENCODING 79
SWIDTH 684 0
DWIDTH 13 0
BBX 13 19 0 -4
BITMAP
0000
0000
0000
0000
0F80
38E0
3060
6030
6030
6030
6030
6030
3060
38E0
0F80
0000
0000
0000
0000
ENDCHAR
STARTCHAR P
ENCODING 80
SWIDTH 526 0
DWIDTH 10 0
BBX 10 19 0 -4
BITMAP
0000
0000
0000
0000
7E00
3300
3180
3180
3300
3E00
3000
3000
3000
3000
7800
0000
0000
0000
0000
ENDCHAR
STARTCHAR Q
ENCODING 81
SWIDTH 684 0
DWIDTH 13 0
BBX 13 19 0 -4
BITMAP
0000
0000
0000
0000
0F80
38E0
3060
6030
6030
6030
6030
6030
3060
38E0
0F80
0380
01C0
0000
0000
ENDCHAR
STARTCHAR R
ENCODING 82
SWIDTH 578 0
DWIDTH 11 0
BBX 11 19 0 -4
BITMAP
0000
0000
0000
0000
7E00
3300
3180
3180
3300
3E00
3600
3300
3180
30C0
7860
0000
0000
0000
0000
ENDCHAR
STARTCHAR S
ENCODING 83
SWIDTH 526 0
DWIDTH 10 0
BBX 10 19 0 -4
BITMAP
0000
0000
0000
0000
1F80
3380
6180
6000
3000
1E00
0300
0180
6180
7300
7E00
0000
0000
0000
0000
ENDCHAR
STARTCHAR T
ENCODING 84
SWIDTH 526 0
DWIDTH 10 0
BBX 10 19 0 -4
BITMAP
0000
0000
0000
0000
FFC0
8CC0
0C00
0C00
0C00
0C00
0C00
0C00
0C00
0C00
1E00
0000
0000
0000
0000
ENDCHAR
STARTCHAR U
ENCODING 85
SWIDTH 684 0
DWIDTH 13 0
BBX 13 19 0 -4
BITMAP
0000
0000
0000
0000
78F0
3060
3060
3060
3060
3060
3060
3060
3060
18C0
0F80
0000
0000
0000
0000
ENDCHAR
STARTCHAR V
ENCODING 86
SWIDTH 631 0
DWIDTH 12 0
BBX 12 19 0 -4
BITMAP
0000
0000
0000
0000
F0F0
6060
6060
30C0
30C0
1980
1980
0F00
0F00
0600
0600
0000
0000
0000
0000
ENDCHAR
STARTCHAR W
ENCODING 87
SWIDTH 842 0
DWIDTH 16 0
BBX 16 19 0 -4
BITMAP
0000
0000
0000
0000
FFFF
6666
666C
33CC
33CC
1998
1998
0FF0
0FF0
0660
0660
0000
0000
0000
0000
ENDCHAR
STARTCHAR X
ENCODING 88
SWIDTH 631 0
DWIDTH 12 0
BBX 12 19 0 -4
BITMAP
0000
0000
0000
0000
F0F0
6060
30C0
1980
0F00
0600
0F00
1980
30C0
6060
F0F0
0000
0000
0000
0000
ENDCHAR
STARTCHAR Y
ENCODING 89
SWIDTH 631 0
DWIDTH 12 0
BBX 12 19 0 -4
BITMAP
0000
0000
0000
0000
F0F0
6060
30C0
1980
0F00
0600
0600
0600
0600
0600
0F00
0000
0000
0000
0000
ENDCHAR
STARTCHAR Z
ENCODING 90
SWIDTH 578 0
DWIDTH 11 0
BBX 11 19 0 -4
BITMAP
0000
0000
0000
0000
7FC0
6180
0300
0300
0600
0C00
1800
3000
3000
60C0
FFC0
0000
0000
0000
0000
ENDCHAR
STARTCHAR bracketleft
ENCODING 91
SWIDTH 315 0
DWIDTH 6 0
BBX 6 19 0 -4
BITMAP
00
00
00
78
60
60
60
60
60
60
60
60
60
60
60
60
60
78
00
ENDCHAR
STARTCHAR backslash
ENCODING 92
SWIDTH 315 0
DWIDTH 6 0
BBX 6 19 0 -4
BITMAP
00
00
00
00
80
80
60
60
60
30
30
18
18
18
0C
0C
00
00
00
ENDCHAR
STARTCHAR bracketright
ENCODING 93
SWIDTH 315 0
DWIDTH 6 0
BBX 6 19 0 -4
BITMAP
00
00
00
78
18
18
18
18
18
18
18
18
18
18
18
18
18
78
00
ENDCHAR
STARTCHAR asciicircum
ENCODING 94
SWIDTH 421 0
DWIDTH 8 0
BBX 8 19 0 -4
BITMAP
00
00
00
18
3C
66
00
00
00
00
00
00
00
00
00
00
00
00
00
ENDCHAR
STARTCHAR underscore
ENCODING 95
SWIDTH 473 0
DWIDTH 9 0
BBX 9 19 0 -4
BITMAP
0000
0000
0000
0000
0000
0000
0000
0000
0000
0000
0000
0000
0000
0000
0000
0000
0000
0000
FF80
ENDCHAR
STARTCHAR quoteleft
ENCODING 96
SWIDTH 315 0
DWIDTH 6 0
BBX 6 19 0 -4
BITMAP
00
00
00
80
60
30
00
00
00
00
00
00
00
00
00
00
00
00
00
ENDCHAR
STARTCHAR a
ENCODING 97
SWIDTH 368 0
DWIDTH 7 0
BBX 7 19 0 -4
BITMAP
00
00
00
00
00
00
00
38
6C
0C
3C
6C
6C
6C
3E
00
00
00
00
ENDCHAR
STARTCHAR b
ENCODING 98
SWIDTH 421 0
DWIDTH 8 0
BBX 8 19 0 -4
BITMAP
00
00
00
70
30
30
30
3E
3B
33
33
33
33
33
1E
00
00
00
00
ENDCHAR
STARTCHAR c
ENCODING 99
SWIDTH 368 0
DWIDTH 7 0
BBX 7 19 0 -4
BITMAP
00
00
00
00
00
00
00
3C
66
60
60
60
60
66
3C
00
00
00
00
ENDCHAR
STARTCHAR d
ENCODING 100
SWIDTH 421 0
DWIDTH 8 0
BBX 8 19 0 -4
BITMAP
00
00
00
0E
06
06
06
3E
66
66
66
66
66
66
3F
00
00
00
00
ENDCHAR
STARTCHAR e
ENCODING 101
SWIDTH 368 0
DWIDTH 7 0
BBX 7 19 0 -4
BITMAP
00
00
00
00
00
00
00
3C
66
66
7E
60
60
66
3C
00
00
00
00
ENDCHAR
STARTCHAR f
ENCODING 102
SWIDTH 368 0
DWIDTH 7 0
BBX 7 19 0 -4
BITMAP
00
00
00
1C
36
30
30
78
30
30
30
30
30
30
78
00
00
00
00
ENDCHAR
STARTCHAR g
ENCODING 103
SWIDTH 473 0
DWIDTH 9 0
BBX 9 19 0 -4
BITMAP
0000
0000
0000
0000
0000
0000
0000
3F00
6600
6600
6600
6600
3C00
6000
7E00
8300
8180
8180
7F00
ENDCHAR
STARTCHAR h
ENCODING 104
SWIDTH 473 0
DWIDTH 9 0
BBX 9 19 0 -4
BITMAP
0000
0000
0000
7000
3000
3000
3000
3E00
3B00
3300
3300
3300
3300
3300
7F80
0000
0000
0000
0000
ENDCHAR
STARTCHAR i
ENCODING 105
SWIDTH 263 0
DWIDTH 5 0
BBX 5 19 0 -4
BITMAP
00
00
00
00
30
00
00
70
30
30
30
30
30
30
78
00
00
00
00
ENDCHAR
STARTCHAR j
ENCODING 106
SWIDTH 210 0
DWIDTH 4 0
BBX 4 19 0 -4
BITMAP
00
00
00
00
30
00
00
70
30
30
30
30
30
30
30
30
30
30
60
ENDCHAR
STARTCHAR k
ENCODING 107
SWIDTH 526 0
DWIDTH 10 0
BBX 10 19 0 -4
BITMAP
0000
0000
0000
7000
3000
3000
3000
3780
3300
3600
3C00
3E00
3300
3180
7BC0
0000
0000
0000
0000
ENDCHAR
STARTCHAR l
ENCODING 108
SWIDTH 263 0
DWIDTH 5 0
BBX 5 19 0 -4
BITMAP
00
00
00
70
30
30
30
30
30
30
30
30
30
30
78
00
00
00
00
ENDCHAR
STARTCHAR m
ENCODING 109
SWIDTH 684 0
DWIDTH 13 0
BBX 13 19 0 -4
BITMAP
0000
0000
0000
0000
0000
0000
0000
7EE0
3BB0
3330
3330
3330
3330
3330
7FF8
0000
0000
0000
0000
ENDCHAR
STARTCHAR n
ENCODING 110
SWIDTH 473 0
DWIDTH 9 0
BBX 9 19 0 -4
BITMAP
0000
0000
0000
0000
0000
0000
0000
7E00
3B00
3300
3300
3300
3300
3300
7F80
0000
0000
0000
0000
ENDCHAR
STARTCHAR o
ENCODING 111
SWIDTH 368 0
DWIDTH 7 0
BBX 7 19 0 -4
BITMAP
00
00
00
00
00
00
00
3C
66
66
66
66
66
66
3C
00
00
00
00
ENDCHAR
STARTCHAR p
ENCODING 112
SWIDTH 421 0
DWIDTH 8 0
BBX 8 19 0 -4
BITMAP
00
00
00
00
00
00
00
7E
3B
33
33
33
33
33
3E
30
30
30
78
ENDCHAR
STARTCHAR q
ENCODING 113
SWIDTH 421 0
DWIDTH 8 0
BBX 8 19 0 -4
BITMAP
00
00
00
00
00
00
00
3E
6E
66
66
66
66
66
3E
06
06
06
0F
ENDCHAR
STARTCHAR r
ENCODING 114
SWIDTH 315 0
DWIDTH 6 0
BBX 6 19 0 -4
BITMAP
00
00
00
00
00
00
00
7C
38
30
30
30
30
30
78
00
00
00
00
ENDCHAR
STARTCHAR s
ENCODING 115
SWIDTH 263 0
DWIDTH 5 0
BBX 5 19 0 -4
BITMAP
00
00
00
00
00
00
00
38
60
60
30
18
18
18
70
00
00
00
00
ENDCHAR
STARTCHAR t
ENCODING 116
SWIDTH 315 0
DWIDTH 6 0
BBX 6 19 0 -4
BITMAP
00
00
00
00
00
30
30
78
30
30
30
30
30
3C
18
00
00
00
00
ENDCHAR
STARTCHAR u
ENCODING 117
SWIDTH 473 0
DWIDTH 9 0
BBX 9 19 0 -4
BITMAP
0000
0000
0000
0000
0000
0000
0000
7700
3300
3300
3300
3300
3300
3700
1F80
0000
0000
0000
0000
ENDCHAR
STARTCHAR v
ENCODING 118
SWIDTH 473 0
DWIDTH 9 0
BBX 9 19 0 -4
BITMAP
0000
0000
0000
0000
0000
0000
0000
7F80
3300
3300
1E00
1E00
1E00
0C00
0C00
0000
0000
0000
0000
ENDCHAR
STARTCHAR w
ENCODING 119
SWIDTH 684 0
DWIDTH 13 0
BBX 13 19 0 -4
BITMAP
0000
0000
0000
0000
0000
0000
0000
7FF8
3330
3330
1FE0
1FE0
1FE0
0CC0
0CC0
0000
0000
0000
0000
ENDCHAR
STARTCHAR x
ENCODING 120
SWIDTH 473 0
DWIDTH 9 0
BBX 9 19 0 -4
BITMAP
0000
0000
0000
0000
0000
0000
0000
7380
3300
1E00
0C00
0C00
1E00
3300
7380
0000
0000
0000
0000
ENDCHAR
STARTCHAR y
ENCODING 121
SWIDTH 473 0
DWIDTH 9 0
BBX 9 19 0 -4
BITMAP
0000
0000
0000
0000
0000
0000
0000
7F80
3300
3300
1E00
1E00
1E00
0C00
0C00
1800
1800
7800
7000
ENDCHAR
STARTCHAR z
ENCODING 122
SWIDTH 421 0
DWIDTH 8 0
BBX 8 19 0 -4
BITMAP
00
00
00
00
00
00
00
7F
66
0C
0C
18
18
33
7F
00
00
00
00
ENDCHAR
STARTCHAR braceleft
ENCODING 123
SWIDTH 421 0
DWIDTH 8 0
BBX 8 19 0 -4
BITMAP
00
00
00
0E
18
18
18
18
18
18
70
18
18
18
18
18
18
0E
00
ENDCHAR
STARTCHAR bar
ENCODING 124
SWIDTH 210 0
DWIDTH 4 0
BBX 4 19 0 -4
BITMAP
00
00
00
00
60
60
60
60
60
60
60
60
60
60
60
60
00
00
00
ENDCHAR
STARTCHAR braceright
ENCODING 125
SWIDTH 421 0
DWIDTH 8 0
BBX 8 19 0 -4
BITMAP
00
00
00
70
18
18
18
18
18
18
0E
18
18
18
18
18
18
70
00
ENDCHAR
STARTCHAR asciitilde
ENCODING 126
SWIDTH 526 0
DWIDTH 10 0
BBX 10 19 0 -4
BITMAP
0000
0000
0000
3800
6D80
0700
0000
0000
0000
0000
0000
0000
0000
0000
0000
0000
0000
0000
0000
ENDCHAR
STARTCHAR C177
ENCODING -1
SWIDTH 315 0
DWIDTH 6 0
BBX 6 19 0 -4
BITMAP
00
00
00
00
00
38
38
38
38
38
38
38
38
38
38
38
00
00
00
ENDCHAR
STARTCHAR C200
ENCODING -1
SWIDTH 315 0
DWIDTH 6 0
BBX 6 19 0 -4
BITMAP
00
00
00
00
00
38
38
38
38
38
38
38
38
38
38
38
00
00
00
ENDCHAR
STARTCHAR C201
ENCODING -1
SWIDTH 315 0
DWIDTH 6 0
BBX 6 19 0 -4
BITMAP
00
00
00
00
00
38
38
38
38
38
38
38
38
38
38
38
00
00
00
ENDCHAR
STARTCHAR C202
ENCODING -1
SWIDTH 315 0
DWIDTH 6 0
BBX 6 19 0 -4
BITMAP
00
00
00
00
00
38
38
38
38
38
38
38
38
38
38
38
00
00
00
ENDCHAR
STARTCHAR C203
ENCODING -1
SWIDTH 315 0
DWIDTH 6 0
BBX 6 19 0 -4
BITMAP
00
00
00
00
00
38
38
38
38
38
38
38
38
38
38
38
00
00
00
ENDCHAR
STARTCHAR C204
ENCODING -1
SWIDTH 315 0
DWIDTH 6 0
BBX 6 19 0 -4
BITMAP
00
00
00
00
00
38
38
38
38
38
38
38
38
38
38
38
00
00
00
ENDCHAR
STARTCHAR C205
ENCODING -1
SWIDTH 315 0
DWIDTH 6 0
BBX 6 19 0 -4
BITMAP
00
00
00
00
00
38
38
38
38
38
38
38
38
38
38
38
00
00
00
ENDCHAR
STARTCHAR C206
ENCODING -1
SWIDTH 315 0
DWIDTH 6 0
BBX 6 19 0 -4
BITMAP
00
00
00
00
00
38
38
38
38
38
38
38
38
38
38
38
00
00
00
ENDCHAR
STARTCHAR C207
ENCODING -1
SWIDTH 315 0
DWIDTH 6 0
BBX 6 19 0 -4
BITMAP
00
00
00
00
00
38
38
38
38
38
38
38
38
38
38
38
00
00
00
ENDCHAR
STARTCHAR C210
ENCODING -1
SWIDTH 315 0
DWIDTH 6 0
BBX 6 19 0 -4
BITMAP
00
00
00
00
00
38
38
38
38
38
38
38
38
38
38
38
00
00
00
ENDCHAR
STARTCHAR C211
ENCODING -1
SWIDTH 315 0
DWIDTH 6 0
BBX 6 19 0 -4
BITMAP
00
00
00
00
00
38
38
38
38
38
38
38
38
38
38
38
00
00
00
ENDCHAR
STARTCHAR C212
ENCODING -1
SWIDTH 315 0
DWIDTH 6 0
BBX 6 19 0 -4
BITMAP
00
00
00
00
00
38
38
38
38
38
38
38
38
38
38
38
00
00
00
ENDCHAR
STARTCHAR C213
ENCODING -1
SWIDTH 315 0
DWIDTH 6 0
BBX 6 19 0 -4
BITMAP
00
00
00
00
00
38
38
38
38
38
38
38
38
38
38
38
00
00
00
ENDCHAR
STARTCHAR C214
ENCODING -1
SWIDTH 315 0
DWIDTH 6 0
BBX 6 19 0 -4
BITMAP
00
00
00
00
00
38
38
38
38
38
38
38
38
38
38
38
00
00
00
ENDCHAR
STARTCHAR C215
ENCODING -1
SWIDTH 315 0
DWIDTH 6 0
BBX 6 19 0 -4
BITMAP
00
00
00
00
00
38
38
38
38
38
38
38
38
38
38
38
00
00
00
ENDCHAR
STARTCHAR C216
ENCODING -1
SWIDTH 315 0
DWIDTH 6 0
BBX 6 19 0 -4
BITMAP
00
00
00
00
00
38
38
38
38
38
38
38
38
38
38
38
00
00
00
ENDCHAR
STARTCHAR C217
ENCODING -1
SWIDTH 315 0
DWIDTH 6 0
BBX 6 19 0 -4
BITMAP
00
00
00
00
00
38
38
38
38
38
38
38
38
38
38
38
00
00
00
ENDCHAR
STARTCHAR C220
ENCODING -1
SWIDTH 315 0
DWIDTH 6 0
BBX 6 19 0 -4
BITMAP
00
00
00
00
00
38
38
38
38
38
38
38
38
38
38
38
00
00
00
ENDCHAR
STARTCHAR C221
ENCODING -1
SWIDTH 263 0
DWIDTH 5 0
BBX 5 19 0 -4
BITMAP
00
00
00
00
30
60
70
00
00
00
00
00
00
00
00
00
00
00
00
ENDCHAR
STARTCHAR C222
ENCODING -1
SWIDTH 263 0
DWIDTH 5 0
BBX 5 19 0 -4
BITMAP
00
00
00
00
70
30
60
00
00
00
00
00
00
00
00
00
00
00
00
ENDCHAR
STARTCHAR C223
ENCODING -1
SWIDTH 315 0
DWIDTH 6 0
BBX 6 19 0 -4
BITMAP
00
00
00
00
00
38
38
38
38
38
38
38
38
38
38
38
00
00
00
ENDCHAR
STARTCHAR C224
ENCODING -1
SWIDTH 315 0
DWIDTH 6 0
BBX 6 19 0 -4
BITMAP
00
00
00
00
00
38
38
38
38
38
38
38
38
38
38
38
00
00
00
ENDCHAR
STARTCHAR C225
ENCODING -1
SWIDTH 315 0
DWIDTH 6 0
BBX 6 19 0 -4
BITMAP
00
00
00
00
00
38
38
38
38
38
38
38
38
38
38
38
00
00
00
ENDCHAR
STARTCHAR C226
ENCODING -1
SWIDTH 315 0
DWIDTH 6 0
BBX 6 19 0 -4
BITMAP
00
00
00
00
00
38
38
38
38
38
38
38
38
38
38
38
00
00
00
ENDCHAR
STARTCHAR C227
ENCODING -1
SWIDTH 315 0
DWIDTH 6 0
BBX 6 19 0 -4
BITMAP
00
00
00
00
00
38
38
38
38
38
38
38
38
38
38
38
00
00
00
ENDCHAR
STARTCHAR C230
ENCODING -1
SWIDTH 315 0
DWIDTH 6 0
BBX 6 19 0 -4
BITMAP
00
00
00
00
00
38
38
38
38
38
38
38
38
38
38
38
00
00
00
ENDCHAR
STARTCHAR C231
ENCODING -1
SWIDTH 315 0
DWIDTH 6 0
BBX 6 19 0 -4
BITMAP
00
00
00
00
00
38
38
38
38
38
38
38
38
38
38
38
00
00
00
ENDCHAR
STARTCHAR C232
ENCODING -1
SWIDTH 315 0
DWIDTH 6 0
BBX 6 19 0 -4
BITMAP
00
00
00
00
00
38
38
38
38
38
38
38
38
38
38
38
00
00
00
ENDCHAR
STARTCHAR C233
ENCODING -1
SWIDTH 315 0
DWIDTH 6 0
BBX 6 19 0 -4
BITMAP
00
00
00
00
00
38
38
38
38
38
38
38
38
38
38
38
00
00
00
ENDCHAR
STARTCHAR C234
ENCODING -1
SWIDTH 315 0
DWIDTH 6 0
BBX 6 19 0 -4
BITMAP
00
00
00
00
00
38
38
38
38
38
38
38
38
38
38
38
00
00
00
ENDCHAR
STARTCHAR C235
ENCODING -1
SWIDTH 315 0
DWIDTH 6 0
BBX 6 19 0 -4
BITMAP
00
00
00
00
00
38
38
38
38
38
38
38
38
38
38
38
00
00
00
ENDCHAR
STARTCHAR C236
ENCODING -1
SWIDTH 315 0
DWIDTH 6 0
BBX 6 19 0 -4
BITMAP
00
00
00
00
00
38
38
38
38
38
38
38
38
38
38
38
00
00
00
ENDCHAR
STARTCHAR C237
ENCODING -1
SWIDTH 315 0
DWIDTH 6 0
BBX 6 19 0 -4
BITMAP
00
00
00
00
00
38
38
38
38
38
38
38
38
38
38
38
00
00
00
ENDCHAR
STARTCHAR C240
ENCODING 160
SWIDTH 263 0
DWIDTH 5 0
BBX 5 19 0 -4
BITMAP
00
00
00
00
00
00
00
00
00
00
00
00
00
00
00
00
00
00
00
ENDCHAR
STARTCHAR exclamdown
ENCODING 161
SWIDTH 578 0
DWIDTH 11 0
BBX 11 19 0 -4
BITMAP
0000
0000
3B80
0000
7FC0
30C0
3000
3000
3300
3F00
3300
3000
3000
30C0
7FC0
0000
0000
0000
0000
ENDCHAR
STARTCHAR cent
ENCODING 162
SWIDTH 473 0
DWIDTH 9 0
BBX 9 19 0 -4
BITMAP
0000
0000
0000
0000
0000
0000
0000
0600
3C00
6E00
7800
7800
7800
7600
3C00
6000
0000
0000
0000
ENDCHAR
STARTCHAR sterling
ENCODING 184
SWIDTH 473 0
DWIDTH 9 0
BBX 9 19 0 -4
BITMAP
0000
0000
0000
0000
1C00
3600
3000
3000
3000
7C00
3000
3000
3000
3300
7E00
0000
0000
0000
0000
ENDCHAR
STARTCHAR currency
ENCODING 164
SWIDTH 473 0
DWIDTH 9 0
BBX 9 19 0 -4
BITMAP
0000
0000
0000
0000
6300
3E00
3600
3600
3E00
6300
0000
0000
0000
0000
0000
0000
0000
0000
0000
ENDCHAR
STARTCHAR yen
ENCODING 165
SWIDTH 473 0
DWIDTH 9 0
BBX 9 19 0 -4
BITMAP
0000
0000
0000
0000
E780
8300
6600
6600
FF00
1800
FF00
1800
1800
1800
3C00
0000
0000
0000
0000
ENDCHAR
STARTCHAR brokenbar
ENCODING 166
SWIDTH 263 0
DWIDTH 5 0
BBX 5 19 0 -4
BITMAP
00
00
00
00
60
60
60
60
60
60
00
00
00
60
60
60
60
60
60
ENDCHAR
STARTCHAR section
ENCODING 167
SWIDTH 473 0
DWIDTH 9 0
BBX 9 19 0 -4
BITMAP
0000
0000
0000
0000
3E00
6300
6000
3800
6E00
6300
3B00
0E00
0300
6300
3E00
0000
0000
0000
0000
ENDCHAR
STARTCHAR dieresis
ENCODING 168
SWIDTH 315 0
DWIDTH 6 0
BBX 6 19 0 -4
BITMAP
00
00
00
00
98
00
00
00
00
00
00
00
00
00
00
00
00
00
00
ENDCHAR
STARTCHAR copyright
ENCODING 169
SWIDTH 736 0
DWIDTH 14 0
BBX 14 19 0 -4
BITMAP
0000
0000
0000
0000
0FC0
3870
37B0
6CD8
6C18
6C18
6C18
6CD8
37B0
3870
0FC0
0000
0000
0000
0000
ENDCHAR
STARTCHAR ordfeminine
ENCODING 170
SWIDTH 263 0
DWIDTH 5 0
BBX 5 19 0 -4
BITMAP
00
00
00
00
70
18
78
98
78
00
F8
00
00
00
00
00
00
00
00
ENDCHAR
STARTCHAR guillemotleft
ENCODING 171
SWIDTH 473 0
DWIDTH 9 0
BBX 9 19 0 -4
BITMAP
0000
0000
0000
0000
0000
0000
0000
0000
1B00
3600
6C00
9800
6C00
3600
1B00
0000
0000
0000
0000
ENDCHAR
STARTCHAR logicalnot
ENCODING 172
SWIDTH 526 0
DWIDTH 10 0
BBX 10 19 0 -4
BITMAP
0000
0000
0000
0000
0000
0000
0000
0000
0000
7F80
0180
0180
0000
0000
0000
0000
0000
0000
0000
ENDCHAR
STARTCHAR hyphen
ENCODING 173
SWIDTH 315 0
DWIDTH 6 0
BBX 6 19 0 -4
BITMAP
00
00
00
00
00
00
00
00
00
00
F8
00
00
00
00
00
00
00
00
ENDCHAR
STARTCHAR registered
ENCODING 174
SWIDTH 736 0
DWIDTH 14 0
BBX 14 19 0 -4
BITMAP
0000
0000
0000
0000
0FC0
3870
3FB0
6CD8
6CD8
6F98
6D98
6D98
3CF0
3870
0FC0
0000
0000
0000
0000
ENDCHAR
STARTCHAR macron
ENCODING 175
SWIDTH 473 0
DWIDTH 9 0
BBX 9 19 0 -4
BITMAP
FF80
0000
0000
0000
0000
0000
0000
0000
0000
0000
0000
0000
0000
0000
0000
0000
0000
0000
0000
ENDCHAR
STARTCHAR degree
ENCODING 176
SWIDTH 315 0
DWIDTH 6 0
BBX 6 19 0 -4
BITMAP
00
00
00
00
30
78
30
00
00
00
00
00
00
00
00
00
00
00
00
ENDCHAR
STARTCHAR plusminus
ENCODING 177
SWIDTH 526 0
DWIDTH 10 0
BBX 10 19 0 -4
BITMAP
0000
0000
0000
0000
0000
0C00
0C00
0C00
7F80
0C00
0C00
0C00
0000
0000
7F80
0000
0000
0000
0000
ENDCHAR
STARTCHAR twosuperior
ENCODING 178
SWIDTH 263 0
DWIDTH 5 0
BBX 5 19 0 -4
BITMAP
00
00
00
00
70
98
30
60
80
F8
00
00
00
00
00
00
00
00
00
ENDCHAR
STARTCHAR threesuperior
ENCODING 168
SWIDTH 263 0
DWIDTH 5 0
BBX 5 19 0 -4
BITMAP
00
00
00
00
70
98
30
18
98
70
00
00
00
00
00
00
00
00
00
ENDCHAR
STARTCHAR acute
ENCODING 180
SWIDTH 315 0
DWIDTH 6 0
BBX 6 19 0 -4
BITMAP
00
00
00
18
30
60
00
00
00
00
00
00
00
00
00
00
00
00
00
ENDCHAR
STARTCHAR mu
ENCODING 181
SWIDTH 578 0
DWIDTH 11 0
BBX 11 19 0 -4
BITMAP
0000
0000
0000
0000
0000
0000
0000
0000
3180
3180
3180
3180
3180
3180
3FE0
3000
3000
3000
3000
ENDCHAR
STARTCHAR paragraph
ENCODING 182
SWIDTH 421 0
DWIDTH 8 0
BBX 8 19 0 -4
BITMAP
00
00
00
00
7E
FE
FE
FE
FE
7E
1E
1E
1E
1E
1E
1E
00
00
00
ENDCHAR
STARTCHAR periodcentered
ENCODING 183
SWIDTH 263 0
DWIDTH 5 0
BBX 5 19 0 -4
BITMAP
00
00
00
00
00
00
00
00
00
60
00
00
00
00
00
00
00
00
00
ENDCHAR
STARTCHAR cedilla
ENCODING 184
SWIDTH 315 0
DWIDTH 6 0
BBX 6 19 0 -4
BITMAP
00
00
00
00
00
00
00
00
00
00
00
00
00
00
00
60
30
E0
00
ENDCHAR
STARTCHAR onesuperior
ENCODING 185
SWIDTH 263 0
DWIDTH 5 0
BBX 5 19 0 -4
BITMAP
00
00
00
00
30
70
30
30
30
78
00
00
00
00
00
00
00
00
00
ENDCHAR
STARTCHAR ordmasculine
ENCODING 186
SWIDTH 315 0
DWIDTH 6 0
BBX 6 19 0 -4
BITMAP
00
00
00
00
78
8C
8C
8C
78
00
FC
00
00
00
00
00
00
00
00
ENDCHAR
STARTCHAR guillemotright
ENCODING 187
SWIDTH 473 0
DWIDTH 9 0
BBX 9 19 0 -4
BITMAP
0000
0000
0000
0000
0000
0000
0000
0000
9800
6C00
3600
1B00
3600
6C00
9800
0000
0000
0000
0000
ENDCHAR
STARTCHAR onequarter
ENCODING 188
SWIDTH 631 0
DWIDTH 12 0
BBX 12 19 0 -4
BITMAP
0000
0000
0000
0000
3030
7060
30C0
3180
3300
7EC0
0DC0
1BC0
33C0
63E0
80C0
0000
0000
0000
0000
ENDCHAR
STARTCHAR onehalf
ENCODING 189
SWIDTH 631 0
DWIDTH 12 0
BBX 12 19 0 -4
BITMAP
0000
0000
0000
0000
3030
7060
30C0
3180
3300
7EE0
0DB0
1860
30C0
6180
81F0
0000
0000
0000
0000
ENDCHAR
STARTCHAR threequarters
ENCODING 190
SWIDTH 631 0
DWIDTH 12 0
BBX 12 19 0 -4
BITMAP
0000
0000
0000
0000
7030
9860
30C0
1980
9B00
76C0
0DC0
1BC0
33C0
63E0
80C0
0000
0000
0000
0000
ENDCHAR
STARTCHAR questiondown
ENCODING 191
SWIDTH 421 0
DWIDTH 8 0
BBX 8 19 0 -4
BITMAP
00
00
00
00
00
7E
00
3C
66
66
7E
60
60
66
3C
00
00
00
00
ENDCHAR
STARTCHAR cyr-A
ENCODING 192
SWIDTH 631 0
DWIDTH 12 0
BBX 12 19 0 -4
BITMAP
0000
0000
0000
0000
0600
0600
0F00
0F00
1980
1980
30C0
3FC0
6060
6060
F0F0
0000
0000
0000
0000
ENDCHAR
STARTCHAR cyr-Be
ENCODING 193
SWIDTH 631 0
DWIDTH 12 0
BBX 12 19 0 -4
BITMAP
0000
0000
0000
0000
7F80
30C0
3000
3000
3F80
30C0
3060
3060
3060
30C0
7F80
0000
0000
0000
0000
ENDCHAR
STARTCHAR cyr-Ve
ENCODING 194
SWIDTH 631 0
DWIDTH 12 0
BBX 12 19 0 -4
BITMAP
0000
0000
0000
0000
7F00
3180
30C0
30C0
3180
3F80
30C0
3060
3060
30C0
7F80
0000
0000
0000
0000
ENDCHAR
STARTCHAR cyr-Ghe
ENCODING 195
SWIDTH 526 0
DWIDTH 10 0
BBX 10 19 0 -4
BITMAP
0000
0000
0000
0000
7FC0
30C0
3000
3000
3000
3000
3000
3000
3000
3000
7800
0000
0000
0000
0000
ENDCHAR
STARTCHAR cyr-De
ENCODING 196
SWIDTH 631 0
DWIDTH 12 0
BBX 12 19 0 -4
BITMAP
0000
0000
0000
0000
3FE0
18C0
18C0
18C0
18C0
18C0
18C0
18C0
18C0
30C0
7FE0
6060
6060
0000
0000
ENDCHAR
STARTCHAR cyr-Ie
ENCODING 197
SWIDTH 578 0
DWIDTH 11 0
BBX 11 19 0 -4
BITMAP
0000
0000
0000
0000
7FC0
30C0
3000
3000
3300
3F00
3300
3000
3000
30C0
7FC0
0000
0000
0000
0000
ENDCHAR
STARTCHAR cyr-Zhe
ENCODING 198
SWIDTH 1000 0
DWIDTH 19 0
BBX 19 19 0 -4
BITMAP
000000
000000
000000
000000
3CF3C0
186180
0C6300
066600
036C00
03FC00
06F600
0C6300
186180
3060C0
78F1E0
000000
000000
000000
000000
ENDCHAR
STARTCHAR cyr-Ze
ENCODING 199
SWIDTH 578 0
DWIDTH 11 0
BBX 11 19 0 -4
BITMAP
0000
0000
0000
0000
3F00
6180
00C0
00C0
0180
0F00
0180
00C0
00C0
6180
3F00
0000
0000
0000
0000
ENDCHAR
STARTCHAR cyr-I
ENCODING 200
SWIDTH 684 0
DWIDTH 13 0
BBX 13 19 0 -4
BITMAP
0000
0000
0000
0000
78F0
3060
3060
30E0
31E0
3360
3660
3C60
3860
3060
78F0
0000
0000
0000
0000
ENDCHAR
STARTCHAR cyr-I-short
ENCODING 201
SWIDTH 684 0
DWIDTH 13 0
BBX 13 19 0 -4
BITMAP
0000
0000
0F80
0000
78F0
3060
3060
30E0
31E0
3360
3660
3C60
3860
3060
78F0
0000
0000
0000
0000
ENDCHAR
STARTCHAR cyr-Ka
ENCODING 202
SWIDTH 631 0
DWIDTH 12 0
BBX 12 19 0 -4
BITMAP
0000
0000
0000
0000
79E0
30C0
3180
3300
3600
3E00
3B00
3180
30C0
3060
78F0
0000
0000
0000
0000
ENDCHAR
STARTCHAR cyr-El
ENCODING 203
SWIDTH 684 0
DWIDTH 13 0
BBX 13 19 0 -4
BITMAP
0000
0000
0000
0000
1FF0
0C60
0C60
0C60
0C60
0C60
0C60
0C60
0C60
0C60
78F0
0000
0000
0000
0000
ENDCHAR
STARTCHAR cyr-Em
ENCODING 204
SWIDTH 842 0
DWIDTH 16 0
BBX 16 19 0 -4
BITMAP
0000
0000
0000
0000
700E
381C
381C
3C3C
3C3C
366C
366C
33CC
33CC
318C
799E
0000
0000
0000
0000
ENDCHAR
STARTCHAR cyr-En
ENCODING 205
SWIDTH 684 0
DWIDTH 13 0
BBX 13 19 0 -4
BITMAP
0000
0000
0000
0000
78F0
3060
3060
3060
3060
3FE0
3060
3060
3060
3060
78F0
0000
0000
0000
0000
ENDCHAR
STARTCHAR cyr-O
ENCODING 206
SWIDTH 684 0
DWIDTH 13 0
BBX 13 19 0 -4
BITMAP
0000
0000
0000
0000
0F80
38E0
3060
6030
6030
6030
6030
6030
3060
38E0
0F80
0000
0000
0000
0000
ENDCHAR
STARTCHAR cyr-Pe
ENCODING 207
SWIDTH 684 0
DWIDTH 13 0
BBX 13 19 0 -4
BITMAP
0000
0000
0000
0000
7FF0
3060
3060
3060
3060
3060
3060
3060
3060
3060
78F0
0000
0000
0000
0000
ENDCHAR
STARTCHAR cyr-Er
ENCODING 208
SWIDTH 631 0
DWIDTH 12 0
BBX 12 19 0 -4
BITMAP
0000
0000
0000
0000
7F80
30C0
3060
3060
3060
30C0
3F80
3000
3000
3000
7800
0000
0000
0000
0000
ENDCHAR
STARTCHAR cyr-Es
ENCODING 209
SWIDTH 631 0
DWIDTH 12 0
BBX 12 19 0 -4
BITMAP
0000
0000
0000
0000
0FE0
38E0
3060
6000
6000
6000
6000
6030
3060
38E0
0F80
0000
0000
0000
0000
ENDCHAR
STARTCHAR cyr-Te
ENCODING 210
SWIDTH 631 0
DWIDTH 12 0
BBX 12 19 0 -4
BITMAP
0000
0000
0000
0000
7FE0
6660
0600
0600
0600
0600
0600
0600
0600
0600
0F00
0000
0000
0000
0000
ENDCHAR
STARTCHAR cyr-U
ENCODING 211
SWIDTH 684 0
DWIDTH 13 0
BBX 13 19 0 -4
BITMAP
0000
0000
0000
0000
7878
3030
1860
0C60
0CC0
06C0
0780
0380
0300
0300
1E00
0000
0000
0000
0000
ENDCHAR
STARTCHAR cyr-Ef
ENCODING 212
SWIDTH 736 0
DWIDTH 14 0
BBX 14 19 0 -4
BITMAP
0000
0000
0000
0000
1FE0
3330
6318
6318
6318
6318
6318
6318
6318
3330
1FE0
0300
0300
0780
0000
ENDCHAR
STARTCHAR cyr-Kha
ENCODING 213
SWIDTH 736 0
DWIDTH 14 0
BBX 14 19 0 -4
BITMAP
0000
0000
0000
0000
7878
3030
1860
0CC0
0780
0300
0780
0CC0
1860
3030
7878
0000
0000
0000
0000
ENDCHAR
STARTCHAR cyr-Tse
ENCODING 214
SWIDTH 684 0
DWIDTH 13 0
BBX 13 19 0 -4
BITMAP
0000
0000
0000
0000
78F0
3060
3060
3060
3060
3060
3060
3060
3060
3060
7FF0
0030
0030
0000
0000
ENDCHAR
STARTCHAR cyr-Che
ENCODING 215
SWIDTH 684 0
DWIDTH 13 0
BBX 13 19 0 -4
BITMAP
0000
0000
0000
0000
78F0
3060
3060
3060
3060
1FE0
0060
0060
0060
0060
00F0
0000
0000
0000
0000
ENDCHAR
STARTCHAR cyr-Sha
ENCODING 216
SWIDTH 947 0
DWIDTH 18 0
BBX 18 19 0 -4
BITMAP
000000
000000
000000
000000
79E780
30C300
30C300
30C300
30C300
30C300
30C300
30C300
30C300
30C300
7FFF80
000000
000000
000000
000000
ENDCHAR
STARTCHAR cyr-Shcha
ENCODING 217
SWIDTH 947 0
DWIDTH 18 0
BBX 18 19 0 -4
BITMAP
000000
000000
000000
000000
79E780
30C300
30C300
30C300
30C300
30C300
30C300
30C300
30C300
30C300
7FFF80
000180
000180
000000
000000
ENDCHAR
STARTCHAR cyr-Ier
ENCODING 218
SWIDTH 736 0
DWIDTH 14 0
BBX 14 19 0 -4
BITMAP
0000
0000
0000
0000
7E00
6C00
6C00
0C00
0FE0
0C30
0C18
0C18
0C18
0C30
1FE0
0000
0000
0000
0000
ENDCHAR
STARTCHAR cyr-Iery
ENCODING 219
SWIDTH 842 0
DWIDTH 16 0
BBX 16 19 0 -4
BITMAP
0000
0000
0000
0000
781E
300C
300C
300C
3F8C
30CC
306C
306C
306C
30CC
7F9E
0000
0000
0000
0000
ENDCHAR
STARTCHAR cyr-Ierik
ENCODING 220
SWIDTH 631 0
DWIDTH 12 0
BBX 12 19 0 -4
BITMAP
0000
0000
0000
0000
7800
3000
3000
3000
3F80
30C0
3060
3060
3060
30C0
7F80
0000
0000
0000
0000
ENDCHAR
STARTCHAR cyr-E-rev
ENCODING 221
SWIDTH 578 0
DWIDTH 11 0
BBX 11 19 0 -4
BITMAP
0000
0000
0000
0000
1F00
3180
60C0
00C0
00C0
1FC0
00C0
00C0
60C0
3180
1F00
0000
0000
0000
0000
ENDCHAR
STARTCHAR cyr-Yu
ENCODING 222
SWIDTH 947 0
DWIDTH 18 0
BBX 18 19 0 -4
BITMAP
000000
000000
000000
000000
787C00
31C700
318300
330180
330180
3F0180
330180
330180
318300
31C700
787C00
000000
000000
000000
000000
ENDCHAR
STARTCHAR cyr-Ya
ENCODING 223
SWIDTH 736 0
DWIDTH 14 0
BBX 14 19 0 -4
BITMAP
0000
0000
0000
0000
0FF8
1830
1830
1830
1830
0FF0
0630
0C30
1830
1830
7878
0000
0000
0000
0000
ENDCHAR
STARTCHAR cyr-a
ENCODING 224
SWIDTH 421 0
DWIDTH 8 0
BBX 8 19 0 -4
BITMAP
00
00
00
00
00
00
00
3C
66
06
3E
66
66
66
3F
00
00
00
00
ENDCHAR
STARTCHAR cyr-be
ENCODING 225
SWIDTH 368 0
DWIDTH 7 0
BBX 7 19 0 -4
BITMAP
00
00
06
3C
60
60
60
7C
76
66
66
66
66
66
3C
00
00
00
00
ENDCHAR
STARTCHAR cyr-ve
ENCODING 226
SWIDTH 421 0
DWIDTH 8 0
BBX 8 19 0 -4
BITMAP
00
00
00
00
00
00
00
7C
36
36
3E
33
33
33
7E
00
00
00
00
ENDCHAR
STARTCHAR cyr-ghe
ENCODING 227
SWIDTH 421 0
DWIDTH 8 0
BBX 8 19 0 -4
BITMAP
00
00
00
00
00
00
00
7F
33
30
30
30
30
30
78
00
00
00
00
ENDCHAR
STARTCHAR cyr-de
ENCODING 228
SWIDTH 473 0
DWIDTH 9 0
BBX 9 19 0 -4
BITMAP
0000
0000
0000
0000
0000
0000
0000
3F80
1B00
1B00
1B00
1B00
1B00
3300
7F80
6180
6180
0000
0000
ENDCHAR
STARTCHAR cyr-ie
ENCODING 229
SWIDTH 368 0
DWIDTH 7 0
BBX 7 19 0 -4
BITMAP
00
00
00
00
00
00
00
3C
66
66
7E
60
60
66
3C
00
00
00
00
ENDCHAR
STARTCHAR cyr-zhe
ENCODING 230
SWIDTH 789 0
DWIDTH 15 0
BBX 15 19 0 -4
BITMAP
0000
0000
0000
0000
0000
0000
0000
3FFC
1998
0DB0
07E0
0DB0
1998
1998
3FFC
0000
0000
0000
0000
ENDCHAR
STARTCHAR cyr-z
ENCODING 231
SWIDTH 421 0
DWIDTH 8 0
BBX 8 19 0 -4
BITMAP
00
00
00
00
00
00
00
3E
63
03
0E
03
03
63
3E
00
00
00
00
ENDCHAR
STARTCHAR cyr-i
ENCODING 232
SWIDTH 526 0
DWIDTH 10 0
BBX 10 19 0 -4
BITMAP
0000
0000
0000
0000
0000
0000
0000
7BC0
3380
3780
3780
3D80
3D80
3980
7BC0
0000
0000
0000
0000
ENDCHAR
STARTCHAR cyr-i-short
ENCODING 233
SWIDTH 526 0
DWIDTH 10 0
BBX 10 19 0 -4
BITMAP
0000
0000
0000
0000
0000
0E00
0000
7BC0
3380
3780
3780
3D80
3D80
3980
7BC0
0000
0000
0000
0000
ENDCHAR
STARTCHAR cyr-ka
ENCODING 234
SWIDTH 473 0
DWIDTH 9 0
BBX 9 19 0 -4
BITMAP
0000
0000
0000
0000
0000
0000
0000
7F80
3300
3600
3C00
3600
3300
3300
7F80
0000
0000
0000
0000
ENDCHAR
STARTCHAR cyr-el
ENCODING 235
SWIDTH 526 0
DWIDTH 10 0
BBX 10 19 0 -4
BITMAP
0000
0000
0000
0000
0000
0000
0000
3FC0
1980
1980
1980
1980
1980
1980
73C0
0000
0000
0000
0000
ENDCHAR
STARTCHAR cyr-em
ENCODING 236
SWIDTH 578 0
DWIDTH 11 0
BBX 11 19 0 -4
BITMAP
0000
0000
0000
0000
0000
0000
0000
70E0
39C0
39C0
3FC0
3FC0
36C0
36C0
79E0
0000
0000
0000
0000
ENDCHAR
STARTCHAR cyr-en
ENCODING 237
SWIDTH 473 0
DWIDTH 9 0
BBX 9 19 0 -4
BITMAP
0000
0000
0000
0000
0000
0000
0000
7F80
3300
3300
3F00
3300
3300
3300
7F80
0000
0000
0000
0000
ENDCHAR
STARTCHAR cyr-o
ENCODING 238
SWIDTH 421 0
DWIDTH 8 0
BBX 8 19 0 -4
BITMAP
00
00
00
00
00
00
00
3E
63
63
63
63
63
63
3E
00
00
00
00
ENDCHAR
STARTCHAR cyr-pe
ENCODING 239
SWIDTH 473 0
DWIDTH 9 0
BBX 9 19 0 -4
BITMAP
0000
0000
0000
0000
0000
0000
0000
7F80
3300
3300
3300
3300
3300
3300
7F80
0000
0000
0000
0000
ENDCHAR
STARTCHAR cyr-er
ENCODING 240
SWIDTH 421 0
DWIDTH 8 0
BBX 8 19 0 -4
BITMAP
00
00
00
00
00
00
00
7E
33
33
33
33
33
33
3E
30
30
30
78
ENDCHAR
STARTCHAR cyr-es
ENCODING 241
SWIDTH 368 0
DWIDTH 7 0
BBX 7 19 0 -4
BITMAP
00
00
00
00
00
00
00
3C
66
60
60
60
60
66
3C
00
00
00
00
ENDCHAR
STARTCHAR cyr-te
ENCODING 242
SWIDTH 473 0
DWIDTH 9 0
BBX 9 19 0 -4
BITMAP
0000
0000
0000
0000
0000
0000
0000
7F80
6D80
0C00
0C00
0C00
0C00
0C00
1E00
0000
0000
0000
0000
ENDCHAR
STARTCHAR cyr-u
ENCODING 243
SWIDTH 473 0
DWIDTH 9 0
BBX 9 19 0 -4
BITMAP
0000
0000
0000
0000
0000
0000
0000
7F80
3300
3300
1E00
1E00
1E00
0C00
0C00
1800
1800
7800
7000
ENDCHAR
STARTCHAR cyr-ef
ENCODING 244
SWIDTH 473 0
DWIDTH 9 0
BBX 9 19 0 -4
BITMAP
0000
0000
0000
0000
0000
0000
0000
3F00
6D80
6D80
6D80
6D80
6D80
6D80
3F00
0C00
0C00
0C00
1E00
ENDCHAR
STARTCHAR cyr-kha
ENCODING 245
SWIDTH 473 0
DWIDTH 9 0
BBX 9 19 0 -4
BITMAP
0000
0000
0000
0000
0000
0000
0000
7380
3300
1E00
0C00
0C00
1E00
3300
7380
0000
0000
0000
0000
ENDCHAR
STARTCHAR cyr-tse
ENCODING 246
SWIDTH 473 0
DWIDTH 9 0
BBX 9 19 0 -4
BITMAP
0000
0000
0000
0000
0000
0000
0000
7F80
3300
3300
3300
3300
3300
3300
7F80
0180
0180
0000
0000
ENDCHAR
STARTCHAR cyr-che
ENCODING 247
SWIDTH 473 0
DWIDTH 9 0
BBX 9 19 0 -4
BITMAP
0000
0000
0000
0000
0000
0000
0000
7F80
3300
3300
3300
1F00
0300
0300
0780
0000
0000
0000
0000
ENDCHAR
STARTCHAR cyr-sha
ENCODING 248
SWIDTH 684 0
DWIDTH 13 0
BBX 13 19 0 -4
BITMAP
0000
0000
0000
0000
0000
0000
0000
7FF8
3330
3330
3330
3330
3330
3330
7FF8
0000
0000
0000
0000
ENDCHAR
STARTCHAR cyr-shcha
ENCODING 249
SWIDTH 684 0
DWIDTH 13 0
BBX 13 19 0 -4
BITMAP
0000
0000
0000
0000
0000
0000
0000
7FF8
3330
3330
3330
3330
3330
3330
7FF8
0018
0018
0000
0000
ENDCHAR
STARTCHAR cyr-ier
ENCODING 250
SWIDTH 473 0
DWIDTH 9 0
BBX 9 19 0 -4
BITMAP
0000
0000
0000
0000
0000
0000
0000
7C00
7800
7800
1F00
1980
1980
1980
3F00
0000
0000
0000
0000
ENDCHAR
STARTCHAR cyr-iery
ENCODING 251
SWIDTH 631 0
DWIDTH 12 0
BBX 12 19 0 -4
BITMAP
0000
0000
0000
0000
0000
0000
0000
78F0
3060
3060
3E60
3360
3360
3360
7EF0
0000
0000
0000
0000
ENDCHAR
STARTCHAR cyr-ierik
ENCODING 252
SWIDTH 421 0
DWIDTH 8 0
BBX 8 19 0 -4
BITMAP
00
00
00
00
00
00
00
78
30
30
3E
33
33
33
7E
00
00
00
00
ENDCHAR
STARTCHAR cyr-e-rev
ENCODING 253
SWIDTH 421 0
DWIDTH 8 0
BBX 8 19 0 -4
BITMAP
00
00
00
00
00
00
00
3E
63
03
1F
03
03
63
3E
00
00
00
00
ENDCHAR
STARTCHAR cyr-yu
ENCODING 254
SWIDTH 631 0
DWIDTH 12 0
BBX 12 19 0 -4
BITMAP
0000
0000
0000
0000
0000
0000
0000
7BE0
3630
3630
3E30
3630
3630
3630
7BE0
0000
0000
0000
0000
ENDCHAR
STARTCHAR cyr-ya
ENCODING 255
SWIDTH 473 0
DWIDTH 9 0
BBX 9 19 0 -4
BITMAP
0000
0000
0000
0000
0000
0000
0000
1F80
3300
3300
3300
1F00
1B00
3300
7780
0000
0000
0000
0000
ENDCHAR
ENDFONT
